<svg xmlns="http://www.w3.org/2000/svg" width="2048" height="2048" viewBox="0 0 541.86665 541.86668">
  <g stroke="#000" stroke-linecap="round" stroke-linejoin="round">
    <path fill="#ffa0a0" stroke-width="8.46667" d="m270.93333 135.46667-87.98818 50.79999v101.6l87.98818 50.8 87.98818-50.8v-101.6z"/>
    <path fill="#a0ffa0" stroke-width="8.46667" d="m373.58621 313.26666-87.98818 50.79999v101.6l87.98818 50.8 87.98818-50.8v-101.6z"/>
    <path fill="#a0a0ff" stroke-width="8.46667" d="m168.28045 313.26666-87.988177 50.79999v101.6l87.988177 50.8 87.98818-50.8v-101.6z"/>
    <path fill="none" stroke-opacity=".501961" stroke-width="1.05833" d="m182.94515 287.86666 175.97635-101.6m-87.98817-50.8v203.2m-87.98818-152.4 175.97635 101.6m.00001-33.86667-117.31756 67.73334V152.4l117.31756 67.73333L212.27454 304.8V169.33333Zm-175.97636 0 117.31756 67.73334V152.4l-117.31756 67.73333L329.59212 304.8V169.33333Zm102.65288 211.66667 175.97635-101.6m-87.98817-50.8v203.2m-87.98818-152.4 175.97635 101.6m.00001-33.86667-117.31756 67.73334V330.2l117.31756 67.73333L314.92742 482.6V347.13333Zm-175.97636 0 117.31756 67.73334V330.2l-117.31756 67.73333L432.245 482.6V347.13333ZM80.29226 465.66666l175.97635-101.6m-87.98817-50.8v203.2m-87.98818-152.4 175.97635 101.6m.00001-33.86667-117.31756 67.73334V330.2l117.31756 67.73333L109.62165 482.6V347.13333Zm-175.97636 0 117.31756 67.73334V330.2L80.29226 397.93333 226.93923 482.6V347.13333Z"/>
  </g>
</svg>
