<?xml version="1.0" encoding="UTF-8" standalone="no"?>
<svg
   width="2048"
   height="2048"
   viewBox="0 0 541.86665 541.86668"
   version="1.1"
   id="svg20"
   sodipodi:docname="grid2.svg"
   inkscape:version="1.1 (c68e22c387, 2021-05-23)"
   inkscape:export-filename="C:\Users\HP\OneDrive\Images\H3X.png"
   inkscape:export-xdpi="96"
   inkscape:export-ydpi="96"
   xmlns:inkscape="http://www.inkscape.org/namespaces/inkscape"
   xmlns:sodipodi="http://sodipodi.sourceforge.net/DTD/sodipodi-0.dtd"
   xmlns="http://www.w3.org/2000/svg"
   xmlns:svg="http://www.w3.org/2000/svg">
  <defs
     id="defs24" />
  <sodipodi:namedview
     id="namedview22"
     pagecolor="#505050"
     bordercolor="#eeeeee"
     borderopacity="1"
     inkscape:pageshadow="0"
     inkscape:pageopacity="0"
     inkscape:pagecheckerboard="0"
     showgrid="false"
     inkscape:zoom="0.24258858"
     inkscape:cx="1007.8793"
     inkscape:cy="962.535"
     inkscape:window-width="1366"
     inkscape:window-height="705"
     inkscape:window-x="-8"
     inkscape:window-y="-8"
     inkscape:window-maximized="1"
     inkscape:current-layer="svg20" />
  <g
     stroke="#000000"
     stroke-linecap="round"
     stroke-linejoin="round"
     id="g12">
    <path
       fill="#ffa0a0"
       stroke-width="8.46667"
       d="m 270.93333,135.46667 -87.98818,50.79999 v 101.6 l 87.98818,50.8 87.98818,-50.8 v -101.6 z"
       id="path4" />
    <path
       fill="#a0ffa0"
       stroke-width="8.46667"
       d="m 373.58621,313.26666 -87.98818,50.79999 v 101.6 l 87.98818,50.8 87.98818,-50.8 v -101.6 z"
       id="path6" />
    <path
       fill="#a0a0ff"
       stroke-width="8.46667"
       d="m 168.28045,313.26666 -87.988177,50.79999 v 101.6 l 87.988177,50.8 87.98818,-50.8 v -101.6 z"
       id="path8" />
    <path
       fill="none"
       stroke-opacity="0.501961"
       stroke-width="1.05833"
       d="m 182.94515,287.86666 175.97635,-101.6 m -87.98817,-50.8 v 203.2 m -87.98818,-152.4 175.97635,101.6 m 1e-5,-33.86667 -117.31756,67.73334 V 152.4 L 358.92151,220.13333 212.27454,304.8 V 169.33333 Z m -175.97636,0 117.31756,67.73334 V 152.4 L 182.94515,220.13333 329.59212,304.8 V 169.33333 Z m 102.65288,211.66667 175.97635,-101.6 m -87.98817,-50.8 v 203.2 m -87.98818,-152.4 175.97635,101.6 m 10e-6,-33.86667 -117.31756,67.73334 V 330.2 L 461.57439,397.93333 314.92742,482.6 V 347.13333 Z m -175.97636,0 117.31756,67.73334 V 330.2 L 285.59803,397.93333 432.245,482.6 V 347.13333 Z m -205.30577,33.86667 175.97635,-101.6 m -87.98817,-50.8 v 203.2 m -87.98818,-152.4 175.97635,101.6 m 10e-6,-33.86667 -117.31756,67.73334 V 330.2 L 256.26862,397.93333 109.62165,482.6 V 347.13333 Z m -175.97636,0 117.31756,67.73334 V 330.2 L 80.29226,397.93333 226.93923,482.6 V 347.13333 Z"
       id="path10"
       style="display:inline" />
  </g>
  <g
     id="g1193"
     inkscape:export-filename="C:\Users\HP\OneDrive\Images\g1193.png"
     inkscape:export-xdpi="96"
     inkscape:export-ydpi="96"
     style="stroke:#000000;stroke-width:2.11667;stroke-linecap:round;stroke-linejoin:round;stroke-miterlimit:4;stroke-dasharray:none;stroke-opacity:1"
     transform="translate(-10.898184,-1.3832035e-5)">
    <path
       id="path1494-25"
       style="display:inline;fill:#e0e0e0;fill-opacity:1;stroke:#000000;stroke-width:2.11667;stroke-linecap:round;stroke-linejoin:round;stroke-miterlimit:4;stroke-dasharray:none;stroke-opacity:1"
       d="m 153.61575,67.733333 v 16.933333 l 14.6647,8.466667 V 76.2 Z m 29.32941,16.933332 V 101.6 l 14.66469,8.46667 V 93.133332 Z m -10e-6,-33.866666 v 16.933333 l 14.6647,8.466667 V 59.266666 Z m -14.6647,8.466668 V 76.2 l 14.6647,8.466667 V 67.733334 Z m -14.66469,-25.4 V 50.8 l 14.66469,8.466667 V 42.333334 Z M 94.95698,84.666666 V 101.6 l 14.66469,8.46667 V 93.133333 Z m -5e-6,-33.866667 v 16.933333 l 14.664695,8.466667 V 59.266666 Z M 36.298184,33.866666 50.96288,42.333333 v 16.933333 l 14.664697,8.466666 V 50.799999 l 14.664695,8.466667 V 110.06667 L 65.627577,101.6 V 84.666666 L 50.96288,76.199999 V 93.133332 L 36.298184,84.666666 Z m 87.988176,50.8 -14.66469,-8.466667 14.66469,-8.466667 z" />
    <path
       id="path2043"
       style="fill:#ffffff;fill-opacity:1;stroke:#000000;stroke-width:2.11667;stroke-linecap:round;stroke-linejoin:round;stroke-miterlimit:4;stroke-dasharray:none;stroke-opacity:1"
       d="m 168.28045,59.266666 14.6647,8.466666 V 50.799999 Z m 0,16.933334 V 59.266666 L 153.61576,67.733333 168.28045,76.2 M 65.627577,67.733333 V 50.799999 l -14.664696,8.466667 14.664696,8.466667 M 109.62167,59.266667 153.61576,33.866666 138.95106,25.4 94.956977,50.8 109.62167,59.266667 m 0,33.866666 14.6647,-8.466667 -14.6647,-8.466667 -14.664703,8.466667 14.664703,8.466667 m 87.98818,-33.866667 14.6647,-8.466667 -14.6647,-8.466667 -14.6647,8.466667 14.6647,8.466667 m 0,33.866666 14.6647,-8.466667 -14.6647,-8.466667 -14.6647,8.466667 14.6647,8.466667 m -29.3294,-50.799998 14.6647,-8.466667 -14.6647,-8.466667 -14.66469,8.466667 14.66469,8.466667 M 80.292273,59.266666 94.95697,50.799999 80.292273,42.333332 65.627577,50.799999 80.292273,59.266666 M 50.96288,42.333333 65.627577,33.866666 50.96288,25.399999 36.298184,33.866666 50.96288,42.333333 M 197.60985,59.266667 212.27455,50.8 197.60985,42.333333 182.94515,50.8 l 14.6647,8.466667" />
    <path
       fill="#a0a0a0"
       d="m 109.62167,59.266666 v 16.933333 l 14.66469,-8.466667 v 16.933334 l -14.66469,8.466666 v 16.933338 l 43.99409,-25.400004 v -50.8 z m -29.329398,0 V 110.06667 L 94.95697,101.6 V 50.799999 Z M 182.94515,67.733333 V 84.666666 L 197.60985,76.2 Z M 168.28045,76.2 v 16.933333 l 14.6647,-8.466667 z m -117.31757,0 V 93.133333 L 65.627577,84.666666 Z M 197.60985,93.133333 V 110.06667 L 212.27455,101.6 V 84.666666 Z m 0,-33.866667 v 16.933333 l 14.6647,-8.466667 V 50.799999 Z m -29.3294,-16.933333 v 16.933333 l 14.6647,-8.466667 V 33.866666 Z m -117.31757,0 V 59.266666 L 65.627577,50.799999 V 33.866666 Z"
       id="path14"
       style="stroke:#000000;stroke-width:2.11667;stroke-linecap:round;stroke-linejoin:round;stroke-miterlimit:4;stroke-dasharray:none;stroke-opacity:1" />
    <path
       fill="none"
       stroke="#000000"
       stroke-linecap="round"
       stroke-linejoin="round"
       stroke-width="2.11667"
       d="m 94.956977,50.8 43.994093,-25.4 14.66469,8.466666 M 109.62167,76.199999 94.956977,67.733333 V 50.8 l 14.664693,8.466666 m 0,50.800004 L 94.956977,101.6 V 84.666666 l 14.664693,8.466667 14.6647,-8.466667 -14.6647,-8.466667 -14.664693,8.466667 m 14.664693,8.466667 v 16.933337 l 43.99409,-25.400004 v -50.8 l -43.99409,25.4 v 16.933333 l 29.3294,-16.933333 -14.6647,8.466667 v 16.933333 l 14.6647,-8.466667 z m -58.65879,-10e-7 14.664697,-8.466666 M 80.292272,110.06667 94.95697,101.6 V 50.799999 m -29.329393,0 14.664695,-8.466666 14.664698,8.466666 -14.664698,8.466667 m -43.994088,-25.4 14.664696,-8.466667 14.664697,8.466667 -14.664697,8.466667 V 59.266666 L 65.627577,50.799999 V 33.866666 m -29.329393,0 v 50.8 L 50.96288,93.133332 V 76.199999 l 14.664697,8.466667 V 101.6 l 14.664695,8.46667 V 59.266666 L 65.627577,50.799999 V 67.733332 L 50.96288,59.266666 V 42.333333 Z m 117.317576,33.866666 14.66469,-8.466666 m 0,33.866666 14.6647,-8.466666 M 197.60984,110.06667 212.27454,101.6 V 84.666666 m -29.32939,0 14.66469,-8.466667 14.6647,8.466667 -14.6647,8.466666 m 0,-16.933333 14.6647,-8.466667 V 50.799999 m -29.32939,0 14.66469,-8.466666 14.6647,8.466666 -14.6647,8.466667 m -43.99408,-25.4 14.66469,-8.466667 14.6647,8.466667 -14.6647,8.466667 v 16.933333 l 14.6647,-8.466667 V 33.866666 m -29.32939,0 v 16.933333 l 14.66469,8.466667 29.32939,16.933333 V 59.266666 L 182.94515,50.799999 V 101.6 l 14.66469,8.46667 V 93.133332 l -43.99408,-25.4 v 16.933334 l 14.66469,8.466666 V 42.333333 Z"
       id="path18"
       style="stroke:#000000;stroke-width:2.11667;stroke-linecap:round;stroke-linejoin:round;stroke-miterlimit:4;stroke-dasharray:none;stroke-opacity:1" />
  </g>
</svg>
