<?xml version="1.0" encoding="UTF-8" standalone="no"?>
<svg
   width="188.79848"
   height="92"
   viewBox="0 0 49.952928 24.341667"
   version="1.1"
   id="svg12"
   sodipodi:docname="h3x.svg"
   inkscape:version="1.1 (c68e22c387, 2021-05-23)"
   xmlns:inkscape="http://www.inkscape.org/namespaces/inkscape"
   xmlns:sodipodi="http://sodipodi.sourceforge.net/DTD/sodipodi-0.dtd"
   xmlns="http://www.w3.org/2000/svg"
   xmlns:svg="http://www.w3.org/2000/svg">
  <defs
     id="defs16" />
  <sodipodi:namedview
     id="namedview14"
     pagecolor="#505050"
     bordercolor="#eeeeee"
     borderopacity="1"
     inkscape:pageshadow="0"
     inkscape:pageopacity="0"
     inkscape:pagecheckerboard="0"
     showgrid="false"
     fit-margin-top="0"
     fit-margin-left="0"
     fit-margin-right="0"
     fit-margin-bottom="0"
     inkscape:zoom="1.015625"
     inkscape:cx="172.8"
     inkscape:cy="216.12308"
     inkscape:window-width="1366"
     inkscape:window-height="705"
     inkscape:window-x="-8"
     inkscape:window-y="-8"
     inkscape:window-maximized="1"
     inkscape:current-layer="svg12" />
  <g
     stroke="#000000"
     stroke-linecap="round"
     stroke-linejoin="round"
     stroke-width="3.30408"
     id="g10"
     transform="scale(0.17968749)">
    <path
       fill="#e0e0e0"
       d="M 184.78192,67.73332 V 94.165843 L 207.67316,107.3821 V 80.949582 Z m 45.7825,26.432521 v 26.432529 l 22.89122,13.21626 V 107.3821 Z m -2e-5,-52.865046 V 67.733318 L 253.45564,80.94958 V 54.517057 Z M 207.67316,54.517059 V 80.949582 L 230.5644,94.165844 V 67.733321 Z M 184.78193,14.868274 v 26.432523 l 22.89123,13.216262 V 28.084536 Z M 93.216996,94.165843 v 26.432527 l 22.891224,13.21626 V 107.3821 Z m -8e-6,-52.865048 V 67.733318 L 116.10822,80.94958 V 54.517057 Z M 1.6520348,14.868272 24.54327,28.084534 V 54.517057 L 47.434508,67.733318 V 41.300795 L 70.325742,54.517057 V 133.81463 L 47.434508,120.59837 V 94.165843 L 24.54327,80.94958 V 107.3821 L 1.6520348,94.165843 Z M 138.99945,94.165843 116.10822,80.94958 138.99945,67.733318 Z"
       id="path2" />
    <path
       fill="#ffffff"
       d="M 207.67316,54.517057 230.5644,67.733318 V 41.300795 Z m 0,26.432525 V 54.517057 L 184.78193,67.73332 207.67316,80.949582 M 47.434508,67.73332 V 41.300795 L 24.543272,54.517057 47.434508,67.73332 M 116.10822,54.517059 184.78193,14.868272 161.89069,1.6520113 93.216991,41.300797 116.10822,54.517059 m 0,52.865041 L 138.99946,94.165843 116.10822,80.94958 93.216976,94.165843 116.10822,107.3821 M 253.45564,54.517057 276.34688,41.300795 253.45564,28.084533 230.5644,41.300795 253.45564,54.517057 m 0,52.865043 L 276.34688,94.165841 253.45564,80.949579 230.5644,94.165841 253.45564,107.3821 M 207.67316,28.084536 230.5644,14.868274 207.67316,1.6520113 184.78193,14.868274 207.67316,28.084536 M 70.325743,54.517057 93.21698,41.300795 70.325743,28.084533 47.434508,41.300795 70.325743,54.517057 M 24.54327,28.084534 47.434508,14.868272 24.54327,1.6520097 1.6520348,14.868272 24.54327,28.084534 M 253.45564,54.517059 276.34688,41.300797 253.45564,28.084534 230.5644,41.300797 253.45564,54.517059"
       id="path4" />
    <path
       fill="#a0a0a0"
       d="M 116.10822,54.517057 V 80.94958 L 138.99945,67.733318 V 94.165843 L 116.10822,107.3821 v 26.43253 L 184.78193,94.165843 V 14.868272 Z m -45.782478,0 V 133.81463 L 93.21698,120.59837 V 41.300795 Z M 230.5644,67.73332 V 94.165843 L 253.45564,80.949582 Z M 207.67316,80.949582 V 107.3821 L 230.5644,94.165843 Z m -183.12989,0 V 107.3821 L 47.434508,94.165843 Z M 253.45564,107.3821 v 26.43253 l 22.89124,-13.21626 V 94.165843 Z m 0,-52.865043 V 80.94958 L 276.34688,67.733318 V 41.300795 Z M 207.67316,28.084534 V 54.517057 L 230.5644,41.300795 V 14.868272 Z m -183.12989,0 V 54.517057 L 47.434508,41.300795 V 14.868272 Z"
       id="path6" />
    <path
       fill="none"
       d="M 93.216991,41.300797 161.89071,1.6520113 184.78193,14.868272 M 116.10822,80.94958 93.216991,67.73332 V 41.300797 l 22.891229,13.21626 m 0,79.297573 -22.891229,-13.21626 V 94.165843 L 116.10822,107.3821 138.99946,94.165843 116.10822,80.94958 93.216991,94.165843 M 116.10822,107.3821 v 26.43253 L 184.78193,94.165843 V 14.868272 L 116.10822,54.517057 V 80.94958 L 161.89071,54.517057 138.99946,67.73332 V 94.165843 L 161.89071,80.94958 Z m -91.56495,0 22.891238,-13.216257 M 70.325742,133.81463 93.21698,120.59837 V 41.300795 m -45.782472,0 L 70.325742,28.084534 93.21698,41.300795 70.325742,54.517057 M 1.6520348,14.868272 24.54327,1.6520097 47.434508,14.868272 24.54327,28.084534 V 54.517057 L 47.434508,41.300795 V 14.868272 m -45.7824732,0 V 94.165843 L 24.54327,107.3821 V 80.94958 l 22.891238,13.216263 v 26.432527 l 22.891234,13.21626 V 54.517057 L 47.434508,41.300795 V 67.733318 L 24.54327,54.517057 V 28.084534 Z M 184.78193,67.733318 207.67316,54.517057 m 0,52.865043 22.89124,-13.216257 m 22.89123,39.648787 22.89124,-13.21626 V 94.165843 m -45.78247,0 22.89123,-13.216263 22.89124,13.216263 -22.89124,13.216257 m 0,-26.43252 22.89124,-13.216262 V 41.300795 m -45.78247,0 22.89123,-13.216261 22.89124,13.216261 -22.89124,13.216262 M 184.78193,14.868272 207.67316,1.6520098 230.5644,14.868272 207.67316,28.084534 V 54.517057 L 230.5644,41.300795 V 14.868272 m -45.78247,0 v 26.432523 l 22.89123,13.216262 45.78247,26.432523 V 54.517057 L 230.5644,41.300795 v 79.297575 l 22.89123,13.21626 V 107.3821 L 184.78193,67.733318 V 94.165843 L 207.67316,107.3821 V 28.084534 Z"
       id="path8" />
  </g>
</svg>
